<?xml version="1.0" encoding="utf-8"?>
<!-- Generator: Adobe Illustrator 16.0.0, SVG Export Plug-In . SVG Version: 6.00 Build 0)  -->
<!DOCTYPE svg PUBLIC "-//W3C//DTD SVG 1.1//EN" "http://www.w3.org/Graphics/SVG/1.1/DTD/svg11.dtd">
<svg version="1.1" id="Layer_1" xmlns="http://www.w3.org/2000/svg" xmlns:xlink="http://www.w3.org/1999/xlink" x="0px" y="0px"
	 width="100px" height="100px" viewBox="0 0 100 100" enable-background="new 0 0 100 100" xml:space="preserve">
<g>
	<path fill="#AE9CC5" d="M87.216,56.709c1.135-2.155,1.785-4.604,1.785-7.21c0-6.62-4.159-12.256-10.002-14.478
		c0-0.007,0.001-0.015,0.001-0.023C79,23.402,69.599,14,58.001,14c-9.785,0-17.981,6.701-20.314,15.756
		C36.211,29.27,34.638,29,33.001,29c-7.692,0-14.022,5.792-14.89,13.251C12.906,43.353,9,47.969,9,53.499
		c0,6.352,5.149,11.5,11.5,11.5c0.177,0,0.353-0.011,0.527-0.021C21.023,65.152,21,65.323,21,65.499
		c0,11.323,9.179,20.5,20.501,20.5c6.435,0,12.174-2.972,15.933-7.614C59.612,80.611,62.641,82,66.001,82
		c4.649,0,8.674-2.65,10.665-6.519c1.052,0.335,2.171,0.517,3.336,0.517c6.073,0,10.999-4.924,10.999-10.999
		C91.001,61.689,89.53,58.726,87.216,56.709z"/>
	<path fill="#FFFFFF" d="M15.406,50.999H5.501C5.225,50.999,5,50.774,5,50.5c0-0.276,0.225-0.501,0.501-0.501h9.905
		c0.276,0,0.5,0.225,0.5,0.501C15.906,50.774,15.683,50.999,15.406,50.999z"/>
	<path fill="#FFFFFF" d="M18.501,50.999h-1c-0.276,0-0.5-0.225-0.5-0.499c0-0.276,0.223-0.501,0.5-0.501h1
		c0.276,0,0.5,0.225,0.5,0.501C19.001,50.774,18.777,50.999,18.501,50.999z"/>
	<path fill="#FFFFFF" d="M23.492,52.998h-8.991C14.225,52.998,14,52.775,14,52.5s0.225-0.501,0.501-0.501h8.991
		c0.275,0,0.5,0.226,0.5,0.501S23.768,52.998,23.492,52.998z"/>
	<path fill="#FFFFFF" d="M12.501,52.998h-1c-0.277,0-0.5-0.223-0.5-0.498s0.223-0.501,0.5-0.501h1c0.275,0,0.499,0.226,0.499,0.501
		S12.777,52.998,12.501,52.998z"/>
	<path fill="#FFFFFF" d="M9.5,52.998h-2C7.224,52.998,7,52.775,7,52.5s0.224-0.501,0.501-0.501h2c0.276,0,0.5,0.226,0.5,0.501
		S9.777,52.998,9.5,52.998z"/>
	<path fill="#FFFFFF" d="M15.501,54.999h-2c-0.276,0-0.5-0.226-0.5-0.5c0-0.275,0.224-0.5,0.5-0.5h2c0.276,0,0.5,0.225,0.5,0.5
		C16,54.773,15.777,54.999,15.501,54.999z"/>
	<path fill="#FFFFFF" d="M18.501,45.999c-0.177,0-0.824,0-1,0c-0.276,0-0.5,0.225-0.5,0.501c0,0.274,0.223,0.5,0.5,0.5
		c0.177,0,0.824,0,1,0c0.276,0,0.5-0.226,0.5-0.5C19.001,46.224,18.777,45.999,18.501,45.999z"/>
	<path fill="#FFFFFF" d="M18.501,47.999c-0.177,0-4.824,0-5,0c-0.276,0-0.5,0.225-0.5,0.501c0,0.276,0.224,0.5,0.5,0.5
		c0.177,0,4.824,0,5,0c0.276,0,0.5-0.224,0.5-0.5C19.001,48.223,18.777,47.999,18.501,47.999z"/>
	<path fill="#FFFFFF" d="M23.501,49.999c-0.177,0-2.824,0-3,0c-0.276,0-0.5,0.225-0.5,0.501c0,0.274,0.223,0.499,0.5,0.499
		c0.177,0,2.824,0,3,0c0.276,0,0.5-0.225,0.5-0.499C24,50.224,23.777,49.999,23.501,49.999z"/>
	<path fill="#FFFFFF" d="M85.501,45.999h-10c-0.276,0-0.501-0.224-0.501-0.5s0.225-0.501,0.501-0.501h10
		c0.274,0,0.499,0.226,0.499,0.501S85.775,45.999,85.501,45.999z"/>
	<path fill="#FFFFFF" d="M89.501,45.999h-2c-0.276,0-0.501-0.224-0.501-0.5s0.225-0.501,0.501-0.501h2
		c0.274,0,0.499,0.226,0.499,0.501S89.775,45.999,89.501,45.999z"/>
	<path fill="#FFFFFF" d="M94.501,47.999h-10C84.225,47.999,84,47.775,84,47.5c0-0.276,0.225-0.5,0.501-0.5h10
		C94.775,47,95,47.224,95,47.5C95,47.775,94.777,47.999,94.501,47.999z"/>
	<path fill="#FFFFFF" d="M82.501,47.999H81.5c-0.275,0-0.498-0.224-0.498-0.499c0-0.276,0.223-0.5,0.498-0.5h1.001
		C82.775,47,83,47.224,83,47.5C83,47.775,82.775,47.999,82.501,47.999z"/>
	<path fill="#FFFFFF" d="M79.375,47.999h-1.874c-0.275,0-0.5-0.224-0.5-0.499c0-0.276,0.225-0.5,0.5-0.5h1.874
		c0.276,0,0.501,0.224,0.501,0.5C79.876,47.775,79.651,47.999,79.375,47.999z"/>
	<path fill="#FFFFFF" d="M88.5,44h-4.999C83.226,44,83,43.774,83,43.499s0.226-0.5,0.501-0.5H88.5c0.276,0,0.501,0.225,0.501,0.5
		S88.778,44,88.5,44z"/>
	<path fill="#FFFFFF" d="M85.501,49.999h-2c-0.275,0-0.501-0.225-0.501-0.5c0-0.275,0.226-0.5,0.501-0.5h2
		c0.274,0,0.499,0.224,0.499,0.5C86,49.774,85.775,49.999,85.501,49.999z"/>
	<path fill="#FDFCEF" d="M43.876,32.5c0,0,3.639,0,6.125,0c2.485,0,4.5-2.015,4.5-4.5c0-2.334-1.782-4.229-4.055-4.457
		c0.023-0.179,0.056-0.356,0.056-0.545c0-2.484-2.015-4.5-4.5-4.5c-1.438,0-2.703,0.686-3.527,1.736
		c-0.141-2.637-2.303-4.736-4.973-4.736c-2.761,0-5,2.239-5,5c0,0.445,0.076,0.87,0.186,1.282c-0.642-0.776-1.601-1.282-2.686-1.282
		c-1.78,0-3.233,1.336-3.456,3.055c-0.181-0.021-0.359-0.055-0.544-0.055c-2.485,0-4.5,2.016-4.5,4.501c0,2.484,2.015,4.5,4.5,4.5
		c2.485,0,9.499,0,9.499,0h5.376V33h3V32.5z"/>
	<path fill="#231F20" d="M37.501,14.999c-3.033,0-5.5,2.468-5.5,5.5c0,0.016,0,0.031,0,0.047c-0.603-0.355-1.29-0.546-2-0.546
		c-1.832,0-3.412,1.26-3.858,3.005c-0.047-0.003-0.094-0.006-0.142-0.006c-2.757,0-5,2.244-5,5.001c0,2.756,2.243,5,5,5h14.875
		c0.276,0,0.5-0.225,0.5-0.5c0-0.276-0.224-0.5-0.5-0.5H26.001c-2.206,0-4-1.795-4-4c0-2.207,1.795-4,4-4
		c0.117,0,0.229,0.017,0.343,0.031l0.141,0.019c0.021,0.005,0.041,0.005,0.063,0.005c0.246,0,0.462-0.185,0.495-0.438
		C27.233,22.125,28.505,21,30.001,21c0.885,0,1.723,0.4,2.3,1.1c0.099,0.118,0.241,0.182,0.386,0.182
		c0.079,0,0.156-0.018,0.229-0.055c0.209-0.108,0.314-0.348,0.253-0.575c-0.114-0.435-0.168-0.8-0.168-1.153
		c0-2.48,2.018-4.499,4.5-4.499c2.381,0,4.347,1.872,4.473,4.263c0.012,0.207,0.151,0.387,0.351,0.449
		c0.048,0.016,0.099,0.022,0.152,0.022c0.149,0,0.295-0.068,0.391-0.191C43.639,19.563,44.779,19,46.001,19c2.206,0,4,1.793,4,3.999
		c0,0.118-0.016,0.231-0.032,0.344l-0.019,0.141c-0.017,0.133,0.022,0.268,0.105,0.374c0.084,0.103,0.208,0.172,0.34,0.184
		c2.057,0.206,3.605,1.908,3.605,3.959c0,2.205-1.794,4-4,4h-6.125c-0.277,0-0.501,0.223-0.501,0.5c0,0.275,0.224,0.5,0.501,0.5H50
		c2.757,0,5-2.244,5-5c0-2.397-1.689-4.414-4.003-4.877c0.002-0.042,0.003-0.082,0.003-0.124c0-2.756-2.243-4.999-5-4.999
		c-1.176,0-2.293,0.417-3.184,1.164C42.221,16.759,40.056,14.999,37.501,14.999L37.501,14.999z"/>
	<path fill="#231F20" d="M36.001,21.999c-1.404,0-2.608,1-2.914,2.341C32.72,24.118,32.301,24,31.875,24
		c-1.202,0-2.198,0.896-2.352,2.068c-0.204-0.047-0.397-0.069-0.586-0.069c-1.529,0-2.811,1.2-2.918,2.732
		c-0.008,0.138,0.096,0.258,0.233,0.269c0.006,0,0.011,0,0.017,0c0.131,0,0.241-0.102,0.25-0.233
		c0.087-1.271,1.15-2.268,2.418-2.268c0.229,0,0.47,0.042,0.738,0.128c0.021,0.006,0.045,0.01,0.067,0.01
		c0.055,0,0.111-0.02,0.155-0.054c0.064-0.045,0.103-0.127,0.103-0.208c0-1.034,0.841-1.875,1.875-1.875
		c0.446,0,0.886,0.168,1.232,0.473c0.046,0.041,0.104,0.063,0.163,0.063c0.033,0,0.064-0.006,0.094-0.019
		c0.088-0.036,0.148-0.117,0.154-0.213c0.104-1.292,1.193-2.304,2.482-2.304c0.207,0,0.424,0.035,0.683,0.107
		c0.022,0.007,0.047,0.009,0.069,0.009c0.108,0,0.208-0.073,0.24-0.181c0.037-0.133-0.039-0.271-0.172-0.309
		C36.518,22.04,36.257,21.999,36.001,21.999L36.001,21.999z"/>
	<path fill="#231F20" d="M49.884,23.499c-1.325,0-2.508,0.896-2.875,2.183c-0.037,0.132,0.04,0.271,0.172,0.308
		c0.024,0.007,0.047,0.009,0.068,0.009c0.109,0,0.21-0.071,0.241-0.181C47.795,24.747,48.779,24,49.884,24
		c0.117,0,0.229,0.013,0.343,0.029c0.011,0.001,0.022,0.001,0.033,0.001c0.122,0,0.23-0.092,0.246-0.217
		c0.021-0.136-0.077-0.262-0.213-0.279C50.159,23.515,50.023,23.499,49.884,23.499L49.884,23.499z"/>
	<path fill="#434B9F" d="M72.301,35.7v30.599c0,3.31-2.69,6.001-6.001,6.001H35.7c-3.31,0-5.999-2.691-5.999-6.001V35.7
		c0-3.31,2.689-6,5.999-6h30.6C69.61,29.699,72.301,32.39,72.301,35.7z"/>
	<path fill="#6E3E97" d="M72.301,47.249v19.05c0,3.31-2.69,6.001-6.001,6.001H35.7c-3.31,0-5.999-2.691-5.999-6.001V35.7
		c0-3.31,2.689-6,5.999-6h19.051C61.991,33.949,68.05,40.009,72.301,47.249z"/>
	<path fill="#AF258E" d="M70.961,70.08c-1.102,1.349-2.78,2.22-4.661,2.22H35.7c-3.31,0-5.999-2.691-5.999-6.001V35.7
		c0-1.88,0.869-3.56,2.219-4.66C53.029,32.018,69.981,48.969,70.961,70.08z"/>
	<path fill="#DA1B59" d="M63.001,71.999V72.3H35.7c-3.31,0-5.999-2.691-5.999-6.001v-27.3h0.3
		C48.229,38.999,63.001,53.769,63.001,71.999z"/>
	<path fill="#E2273F" d="M55.001,71.999c0,0.101,0,0.2-0.01,0.301H35.7c-3.31,0-5.999-2.691-5.999-6.001v-19.29
		C29.801,47,29.9,47,30.001,47C43.81,47,55.001,58.189,55.001,71.999z"/>
	<path fill="#F27C21" d="M48,71.999c0,0.101,0,0.2-0.01,0.301H35.7c-3.31,0-5.999-2.691-5.999-6.001V54.01
		c0.1-0.011,0.199-0.011,0.3-0.011C39.941,53.999,48,62.06,48,71.999z"/>
	<path fill="#EE9823" d="M42.001,71.999c0,0.101,0,0.2-0.01,0.301H35.7c-3.31,0-5.999-2.691-5.999-6.001V60.01
		c0.1-0.011,0.199-0.011,0.3-0.011C36.63,59.999,42.001,65.37,42.001,71.999z"/>
	<path d="M66.3,73H35.7c-3.693,0-6.699-3.007-6.699-6.701V35.7c0-3.693,3.006-6.7,6.699-6.7h30.6c3.695,0,6.701,3.006,6.701,6.7
		v30.599C73.001,69.993,69.995,73,66.3,73z M35.7,30.4c-2.923,0-5.299,2.377-5.299,5.3v30.599c0,2.924,2.376,5.3,5.299,5.3h30.6
		c2.923,0,5.3-2.376,5.3-5.3V35.7c0-2.923-2.377-5.3-5.3-5.3H35.7z"/>
	<path fill="#FFFFFF" d="M50.99,66.499c-3.983,0-5.465-0.01-6.98-0.08c-1.392-0.063-2.479-0.271-3.519-0.68
		c-1.016-0.39-1.806-0.905-2.571-1.67c-0.759-0.76-1.272-1.553-1.67-2.569c-0.395-1.015-0.605-2.098-0.68-3.521
		c-0.069-1.527-0.08-3.008-0.08-6.98c0-3.964,0.011-5.444,0.08-6.97c0.062-1.394,0.271-2.479,0.68-3.52
		c0.395-1.027,0.911-1.821,1.67-2.57c0.759-0.758,1.551-1.273,2.571-1.67c1.04-0.406,2.127-0.618,3.519-0.68
		c1.566-0.07,3.068-0.089,6.98-0.089c3.915,0,5.413,0.019,6.971,0.089c1.394,0.063,2.479,0.271,3.521,0.68
		c1.027,0.396,1.818,0.912,2.569,1.67c0.751,0.743,1.271,1.535,1.681,2.57c0.399,1.052,0.606,2.139,0.669,3.521
		c0.071,1.58,0.092,3.08,0.092,6.969c0,3.898-0.021,5.397-0.092,6.979c-0.062,1.384-0.27,2.469-0.669,3.521
		c-0.41,1.023-0.93,1.819-1.681,2.568c-0.748,0.758-1.536,1.272-2.56,1.671c-1.055,0.407-2.145,0.616-3.53,0.68
		C56.445,66.489,54.966,66.499,50.99,66.499z M49.682,38.5c-2.752,0-4.263,0.021-5.575,0.079c-1.334,0.061-2.068,0.285-2.562,0.471
		c-0.608,0.24-1.046,0.525-1.508,0.988c-0.461,0.459-0.746,0.895-0.981,1.499c-0.188,0.494-0.413,1.231-0.477,2.568
		C38.512,45.61,38.5,46.998,38.5,50.99c0,3.999,0.012,5.389,0.079,6.893c0.064,1.329,0.286,2.064,0.476,2.556
		c0.238,0.622,0.513,1.043,0.979,1.507c0.468,0.461,0.906,0.743,1.513,0.983c0.478,0.186,1.195,0.407,2.561,0.472
		c1.559,0.07,3.037,0.089,6.886,0.089c3.855,0,5.336-0.02,6.893-0.089c1.397-0.064,2.135-0.301,2.565-0.474
		c0.6-0.231,1.034-0.513,1.498-0.967c0.46-0.47,0.745-0.908,0.988-1.518c0.185-0.482,0.402-1.206,0.466-2.559
		c0.07-1.572,0.089-3.054,0.089-6.894c0-3.835-0.019-5.313-0.089-6.886c-0.063-1.349-0.281-2.074-0.463-2.554
		c-0.236-0.611-0.521-1.049-0.979-1.507c-0.493-0.486-0.894-0.743-1.53-0.985c-0.461-0.185-1.171-0.404-2.543-0.47
		c-1.535-0.069-3.018-0.088-6.896-0.088H49.682z"/>
	<path fill="#FFFFFF" d="M59.501,40.751c-0.966,0-1.75,0.782-1.75,1.749c0,0.965,0.784,1.75,1.75,1.75s1.749-0.785,1.749-1.75
		C61.25,41.533,60.467,40.75,59.501,40.751L59.501,40.751z"/>
	<path fill="#FFFFFF" d="M50.988,42.504c-4.694,0-8.5,3.806-8.5,8.5c0,4.695,3.806,8.499,8.5,8.499c4.696,0,8.499-3.805,8.499-8.499
		S55.683,42.504,50.988,42.504L50.988,42.504z M50.988,45.504c3.038,0,5.501,2.462,5.501,5.5c0,3.036-2.463,5.5-5.501,5.5
		s-5.5-2.464-5.5-5.5C45.488,47.967,47.95,45.504,50.988,45.504z"/>
	<g>
		<path fill="#FDFCEF" d="M80.501,76.499c0,0,1.565,0,3.499,0c1.935,0,3.501-1.566,3.501-3.499c0-1.783-1.336-3.234-3.055-3.455
			c0.027-0.18,0.055-0.357,0.055-0.546c0-1.934-1.566-3.5-3.499-3.5c-1.033,0-1.952,0.455-2.591,1.165
			c-0.386-1.807-1.987-3.165-3.91-3.165c-2.209,0-4,1.791-4,4.001c0,0.19,0.029,0.374,0.057,0.559
			c-0.429-0.346-0.966-0.559-1.557-0.559c-1.229,0-2.245,0.886-2.455,2.054c-0.18-0.027-0.357-0.055-0.545-0.055
			c-1.934,0-3.501,1.566-3.501,3.501c0,1.933,1.567,3.499,3.501,3.499c1.933,0,7.5,0,7.5,0v0.5h7V76.499z"/>
		<path d="M82.251,71.999c-0.14,0-0.25-0.11-0.25-0.251c0-1.223,0.995-2.218,2.217-2.218c0.034,0.01,0.737,0,1.244,0.138
			c0.135,0.035,0.213,0.173,0.178,0.306c-0.037,0.134-0.175,0.213-0.307,0.177c-0.444-0.121-1.1-0.121-1.114-0.119
			c-0.946,0-1.718,0.77-1.718,1.717C82.501,71.889,82.39,71.999,82.251,71.999z"/>
		<circle cx="75.501" cy="76.499" r="0.5"/>
		<path d="M84,76.999h-3.499c-0.275,0-0.499-0.225-0.499-0.5c0-0.274,0.224-0.501,0.499-0.501H84c1.655,0,3-1.345,3-2.998
			c0-1.497-1.125-2.768-2.617-2.96c-0.135-0.019-0.255-0.089-0.337-0.196c-0.081-0.107-0.114-0.243-0.094-0.377
			C83.976,69.313,84,69.16,84,68.999c0-1.654-1.345-3-2.998-3c-0.851,0-1.64,0.356-2.221,0.999c-0.124,0.141-0.32,0.2-0.499,0.149
			c-0.183-0.049-0.321-0.194-0.36-0.379C77.581,65.164,76.142,64,74.501,64c-1.931,0-3.5,1.57-3.5,3.5
			c0,0.142,0.021,0.279,0.041,0.418c0.029,0.203-0.063,0.436-0.242,0.541c-0.179,0.101-0.396,0.116-0.556-0.011
			c-0.366-0.294-0.794-0.449-1.243-0.449c-0.966,0-1.792,0.692-1.963,1.646c-0.049,0.267-0.296,0.444-0.57,0.403
			C66.315,70.024,66.16,70,66.001,70c-1.655,0-3,1.346-3,3c0,1.653,1.345,2.998,3,2.998h7.5c0.275,0,0.499,0.227,0.499,0.501
			c0,0.275-0.224,0.5-0.499,0.5h-7.5c-2.206,0-3.999-1.793-3.999-3.999c0-2.208,1.793-4.001,3.999-4.001
			c0.059,0,0.116,0.003,0.173,0.007c0.415-1.187,1.537-2.008,2.827-2.008c0.35,0,0.689,0.063,1.012,0.181
			c0.163-2.332,2.114-4.18,4.488-4.18c1.831,0,3.466,1.127,4.152,2.774c0.681-0.498,1.502-0.774,2.349-0.774
			c2.204,0,3.999,1.794,3.999,4c0,0.048-0.002,0.095-0.005,0.143C86.738,69.589,88,71.168,88,73C88,75.206,86.206,76.999,84,76.999z
			"/>
		<path d="M78.5,75.998c-0.159,0-0.84,0-0.999,0c-0.275,0-0.5,0.227-0.5,0.501c0,0.275,0.225,0.5,0.5,0.5c0.159,0,0.84,0,0.999,0
			c0.275,0,0.5-0.225,0.5-0.5C79,76.225,78.775,75.998,78.5,75.998z"/>
	</g>
</g>
</svg>
