<?xml version="1.0" encoding="utf-8"?>
<!-- Generator: Adobe Illustrator 16.0.0, SVG Export Plug-In . SVG Version: 6.00 Build 0)  -->
<!DOCTYPE svg PUBLIC "-//W3C//DTD SVG 1.1//EN" "http://www.w3.org/Graphics/SVG/1.1/DTD/svg11.dtd">
<svg version="1.1" id="Layer_1" xmlns="http://www.w3.org/2000/svg" xmlns:xlink="http://www.w3.org/1999/xlink" x="0px" y="0px"
	 width="100px" height="100px" viewBox="0 0 100 100" enable-background="new 0 0 100 100" xml:space="preserve">
<g>
	<g>
		<path fill="#AE9CC5" d="M85.912,56.941c1.174-2.23,1.847-4.764,1.847-7.458c0-6.851-4.303-12.679-10.347-14.978
			c0-0.007,0.002-0.016,0.002-0.023c0-11.997-9.727-21.724-21.725-21.724c-10.123,0-18.602,6.932-21.014,16.3
			c-1.526-0.502-3.153-0.782-4.848-0.782c-7.957,0-14.505,5.993-15.403,13.708C9.041,43.125,5,47.899,5,53.621
			c0,6.57,5.327,11.896,11.897,11.896c0.183,0,0.366-0.012,0.543-0.022c-0.002,0.18-0.026,0.358-0.026,0.54
			c0,11.712,9.496,21.206,21.207,21.206c6.659,0,12.595-3.074,16.483-7.877c2.253,2.303,5.387,3.739,8.861,3.739
			c4.811,0,8.973-2.742,11.035-6.743c1.088,0.346,2.245,0.536,3.448,0.536c6.284,0,11.38-5.095,11.38-11.379
			C89.828,62.094,88.306,59.028,85.912,56.941z"/>
		<path fill="#FDFCEF" d="M31.379,40.172v0.519h3.104v-0.519c0,0,4.388,0,5.689,0c2.571,0,4.656-2.084,4.656-4.654
			c0-2.414-1.843-4.375-4.196-4.608c0.023-0.187,0.058-0.37,0.058-0.564c0-2.571-2.085-4.656-4.657-4.656
			c-1.487,0-2.796,0.709-3.646,1.796c-0.145-2.727-2.381-4.9-5.145-4.9c-2.856,0-5.173,2.316-5.173,5.173
			c0,0.46,0.081,0.9,0.193,1.325c-0.663-0.803-1.656-1.325-2.778-1.325c-1.843,0-3.346,1.38-3.575,3.16
			c-0.188-0.022-0.37-0.057-0.563-0.057c-2.571,0-4.655,2.085-4.655,4.656c0,2.57,2.084,4.654,4.655,4.654c2.572,0,9.828,0,9.828,0
			H31.379z"/>
		<path d="M27.242,22.069c-3.138,0-5.69,2.551-5.69,5.69c0,0.015,0,0.033,0,0.047c-0.624-0.366-1.333-0.564-2.068-0.564
			c-1.895,0-3.53,1.303-3.992,3.107c-0.048-0.003-0.097-0.004-0.147-0.004c-2.851,0-5.171,2.32-5.171,5.172
			c0,2.853,2.32,5.173,5.171,5.173h16.035c0.286,0,0.518-0.233,0.518-0.519c0-0.285-0.232-0.517-0.518-0.517H15.345
			c-2.282,0-4.137-1.856-4.137-4.138c0-2.282,1.855-4.137,4.137-4.137c0.122,0,0.237,0.018,0.355,0.033l0.145,0.019
			c0.022,0.003,0.042,0.003,0.064,0.003c0.255,0,0.478-0.19,0.512-0.452c0.197-1.544,1.514-2.707,3.062-2.707
			c0.914,0,1.783,0.413,2.379,1.137c0.102,0.122,0.25,0.189,0.399,0.189c0.081,0,0.162-0.019,0.237-0.058
			c0.216-0.11,0.324-0.358,0.263-0.593c-0.12-0.449-0.175-0.828-0.175-1.192c0-2.566,2.088-4.655,4.655-4.655
			c2.463,0,4.497,1.937,4.627,4.41c0.012,0.214,0.155,0.4,0.361,0.465c0.052,0.017,0.104,0.024,0.158,0.024
			c0.154,0,0.305-0.071,0.405-0.198c0.797-1.016,1.977-1.598,3.24-1.598c2.284,0,4.139,1.855,4.139,4.138
			c0,0.122-0.017,0.238-0.033,0.354l-0.02,0.147c-0.018,0.137,0.023,0.277,0.111,0.385c0.086,0.109,0.214,0.177,0.352,0.191
			c2.127,0.211,3.729,1.972,3.729,4.094c0,2.281-1.855,4.138-4.138,4.138h-5.689c-0.287,0-0.518,0.232-0.518,0.517
			c0,0.286,0.231,0.519,0.518,0.519h5.689c2.852,0,5.172-2.32,5.172-5.173c0-2.479-1.746-4.566-4.14-5.045
			c0.001-0.043,0.002-0.085,0.002-0.127c0-2.852-2.321-5.173-5.173-5.173c-1.214,0-2.37,0.431-3.292,1.206
			C32.124,23.89,29.885,22.069,27.242,22.069L27.242,22.069z"/>
		<path d="M25.688,29.31c-1.45,0-2.696,1.035-3.012,2.422c-0.38-0.229-0.814-0.352-1.253-0.352c-1.245,0-2.275,0.926-2.435,2.138
			c-0.21-0.048-0.411-0.071-0.606-0.071c-1.581,0-2.907,1.242-3.018,2.828c-0.009,0.142,0.099,0.266,0.241,0.275
			c0.005,0,0.012,0,0.019,0c0.134,0,0.249-0.105,0.258-0.239c0.09-1.315,1.19-2.347,2.5-2.347c0.238,0,0.488,0.044,0.765,0.132
			c0.022,0.007,0.045,0.01,0.068,0.01c0.057,0,0.115-0.02,0.161-0.055c0.067-0.048,0.107-0.134,0.107-0.216
			c0-1.07,0.869-1.939,1.94-1.939c0.462,0,0.914,0.173,1.272,0.489c0.049,0.042,0.109,0.065,0.17,0.065
			c0.034,0,0.066-0.005,0.098-0.018c0.091-0.037,0.152-0.122,0.158-0.222c0.109-1.338,1.236-2.384,2.566-2.384
			c0.216,0,0.44,0.036,0.708,0.112c0.024,0.008,0.047,0.01,0.072,0.01c0.111,0,0.213-0.076,0.247-0.188
			c0.039-0.139-0.042-0.281-0.179-0.321C26.224,29.352,25.954,29.31,25.688,29.31L25.688,29.31z"/>
		<path fill="#472B29" d="M40.051,30.862c-1.37,0-2.594,0.927-2.973,2.256c-0.038,0.138,0.04,0.281,0.178,0.321
			c0.024,0.005,0.048,0.008,0.071,0.008c0.113,0,0.216-0.075,0.249-0.188c0.316-1.106,1.333-1.88,2.475-1.88
			c0.121,0,0.237,0.013,0.355,0.029c0.012,0.003,0.023,0.004,0.036,0.004c0.125,0,0.236-0.096,0.254-0.226
			c0.02-0.141-0.08-0.271-0.221-0.289C40.335,30.878,40.195,30.862,40.051,30.862L40.051,30.862z"/>
		<path fill="#FFFFFF" d="M22.068,71.725H11.724c-0.286,0-0.516-0.231-0.516-0.517c0-0.286,0.23-0.519,0.516-0.519h10.345
			c0.287,0,0.519,0.232,0.519,0.519C22.587,71.493,22.355,71.725,22.068,71.725z"/>
		<path fill="#FFFFFF" d="M25.173,71.725h-1.035c-0.287,0-0.517-0.231-0.517-0.517c0-0.286,0.23-0.519,0.517-0.519h1.035
			c0.286,0,0.516,0.232,0.516,0.519C25.688,71.493,25.459,71.725,25.173,71.725z"/>
		<path fill="#FFFFFF" d="M30.335,73.794h-9.301c-0.287,0-0.518-0.234-0.518-0.517c0-0.285,0.231-0.519,0.518-0.519h9.301
			c0.285,0,0.519,0.233,0.519,0.519C30.854,73.56,30.62,73.794,30.335,73.794z"/>
		<path fill="#FFFFFF" d="M18.966,73.794h-1.035c-0.285,0-0.517-0.234-0.517-0.517c0-0.285,0.232-0.519,0.517-0.519h1.035
			c0.286,0,0.518,0.233,0.518,0.519C19.483,73.56,19.251,73.794,18.966,73.794z"/>
		<path fill="#FFFFFF" d="M15.862,73.794h-2.069c-0.286,0-0.517-0.234-0.517-0.517c0-0.285,0.231-0.519,0.517-0.519h2.069
			c0.287,0,0.517,0.233,0.517,0.519C16.379,73.56,16.149,73.794,15.862,73.794z"/>
		<path fill="#FFFFFF" d="M22.068,75.861H20c-0.287,0-0.517-0.232-0.517-0.516c0-0.286,0.23-0.519,0.517-0.519h2.068
			c0.287,0,0.519,0.232,0.519,0.519C22.587,75.629,22.355,75.861,22.068,75.861z"/>
		<path fill="#FFFFFF" d="M25.173,66.552c-0.184,0-0.852,0-1.035,0c-0.287,0-0.517,0.231-0.517,0.517s0.23,0.517,0.517,0.517
			c0.183,0,0.851,0,1.035,0c0.286,0,0.516-0.231,0.516-0.517S25.459,66.552,25.173,66.552z"/>
		<path fill="#FFFFFF" d="M25.173,68.62c-0.184,0-4.99,0-5.172,0c-0.287,0-0.517,0.232-0.517,0.518c0,0.284,0.23,0.519,0.517,0.519
			c0.183,0,4.988,0,5.172,0c0.286,0,0.516-0.234,0.516-0.519C25.688,68.853,25.459,68.62,25.173,68.62z"/>
		<path fill="#FFFFFF" d="M30.345,70.689c-0.183,0-2.921,0-3.104,0c-0.287,0-0.517,0.232-0.517,0.519
			c0,0.285,0.23,0.517,0.517,0.517c0.183,0,2.92,0,3.104,0c0.286,0,0.518-0.231,0.518-0.517
			C30.863,70.922,30.631,70.689,30.345,70.689z"/>
		<g>
			<path fill="#FFFFFF" d="M85.172,44.827H74.828c-0.285,0-0.518-0.231-0.518-0.517c0-0.285,0.232-0.517,0.518-0.517h10.344
				c0.286,0,0.518,0.232,0.518,0.517C85.689,44.596,85.458,44.827,85.172,44.827z"/>
			<path fill="#FFFFFF" d="M89.31,44.827h-2.067c-0.285,0-0.518-0.231-0.518-0.517c0-0.285,0.232-0.517,0.518-0.517h2.067
				c0.285,0,0.519,0.232,0.519,0.517C89.828,44.596,89.595,44.827,89.31,44.827z"/>
			<path fill="#FFFFFF" d="M94.482,46.896H84.138c-0.284,0-0.517-0.232-0.517-0.517c0-0.286,0.232-0.518,0.517-0.518h10.345
				c0.285,0,0.518,0.232,0.518,0.518C95,46.665,94.769,46.896,94.482,46.896z"/>
			<path fill="#FFFFFF" d="M82.068,46.896h-1.034c-0.284,0-0.517-0.232-0.517-0.517c0-0.286,0.232-0.518,0.517-0.518h1.034
				c0.285,0,0.518,0.232,0.518,0.518C82.586,46.665,82.354,46.896,82.068,46.896z"/>
			<path fill="#FFFFFF" d="M78.935,46.896h-2.039c-0.284,0-0.516-0.232-0.516-0.517c0-0.286,0.231-0.518,0.516-0.518h2.039
				c0.284,0,0.518,0.232,0.518,0.518C79.452,46.665,79.219,46.896,78.935,46.896z"/>
			<path fill="#FFFFFF" d="M88.275,42.759h-5.172c-0.285,0-0.518-0.231-0.518-0.517s0.232-0.518,0.518-0.518h5.172
				c0.285,0,0.518,0.232,0.518,0.518S88.563,42.759,88.275,42.759z"/>
			<path fill="#FFFFFF" d="M85.172,48.965h-2.068c-0.285,0-0.518-0.231-0.518-0.517s0.232-0.519,0.518-0.519h2.068
				c0.286,0,0.518,0.233,0.518,0.519S85.458,48.965,85.172,48.965z"/>
		</g>
		<g>
			<path d="M34.354,75.139c-3.807,0-6.904-3.098-6.904-6.906V37.974c0-3.809,3.097-6.905,6.904-6.905h30.258
				c3.809,0,6.906,3.096,6.906,6.905v30.258c0,3.809-3.098,6.906-6.906,6.906H34.354z"/>
			<path d="M64.611,31.793c3.409,0,6.182,2.772,6.182,6.181v30.258c0,3.41-2.772,6.18-6.182,6.18H34.354
				c-3.408,0-6.181-2.77-6.181-6.18V37.974c0-3.409,2.773-6.181,6.181-6.181H64.611 M64.611,30.345H34.354
				c-4.197,0-7.629,3.432-7.629,7.629v30.258c0,4.197,3.432,7.629,7.629,7.629h30.258c4.197,0,7.63-3.432,7.63-7.629V37.974
				C72.241,33.777,68.809,30.345,64.611,30.345L64.611,30.345z"/>
		</g>
		<g>
			<g>
				<path fill="#FE2A53" d="M66.034,44.827c0,0-7.241,0-8.275-8.276h-6.207v14.508v7.217L51.5,61.38
					c-0.26,2.324-2.208,4.138-4.604,4.138c-2.572,0-4.655-2.084-4.655-4.654s2.083-4.656,4.655-4.656
					c0.178,0,0.346,0.033,0.517,0.051v-6.231C47.24,50.018,47.071,50,46.896,50c-6,0-10.863,4.862-10.863,10.863
					c0,5.998,4.864,10.861,10.863,10.861c5.824,0,10.563-4.588,10.835-10.345h0.027v-13.2c2.049,1.679,4.741,2.855,8.275,2.855
					C66.034,48.965,66.034,44.827,66.034,44.827z"/>
			</g>
		</g>
		<g>
			<path fill="#FFFFFF" d="M44.828,70.173c-6.274,0-11.379-5.106-11.379-11.38c0-6.272,5.105-11.379,11.379-11.379
				c0.125,0,0.245,0.008,0.366,0.016l0.176,0.012c0.276,0.011,0.493,0.239,0.493,0.514v6.233c0,0.148-0.063,0.288-0.172,0.387
				c-0.097,0.086-0.22,0.133-0.346,0.133c-0.019,0-0.223-0.026-0.223-0.026c-0.097-0.011-0.194-0.027-0.293-0.027
				c-2.283,0-4.138,1.855-4.138,4.138c0,2.281,1.855,4.138,4.138,4.138c2.096,0,3.856-1.58,4.089-3.678l0.049-3.055V34.483
				c0-0.285,0.231-0.518,0.517-0.518h6.206c0.261,0,0.481,0.194,0.514,0.453c0.965,7.709,7.486,7.824,7.764,7.825
				c0.284,0.001,0.517,0.232,0.517,0.517v6.206c0,0.288-0.232,0.52-0.519,0.52c-2.925,0-5.529-0.785-7.758-2.334V59.31
				c0,0.068-0.016,0.132-0.035,0.191C55.804,65.497,50.852,70.173,44.828,70.173z"/>
			<path d="M55.689,34.483c1.034,8.276,8.275,8.276,8.275,8.276s0,4.138,0,6.207c-3.533,0-6.227-1.175-8.275-2.854V59.31h-0.026
				c-0.271,5.757-5.011,10.347-10.835,10.347c-5.999,0-10.862-4.864-10.862-10.863c0-5.998,4.864-10.863,10.862-10.863
				c0.175,0,0.345,0.02,0.517,0.026v6.233c-0.171-0.019-0.34-0.052-0.517-0.052c-2.57,0-4.656,2.085-4.656,4.655
				c0,2.571,2.086,4.654,4.656,4.654c2.393,0,4.344-1.813,4.603-4.138l0.053-3.103v-7.218V34.483H55.689 M55.689,33.448h-6.206
				c-0.571,0-1.036,0.464-1.036,1.035v14.506v7.218l-0.05,3.034c-0.227,1.813-1.753,3.173-3.57,3.173
				c-1.998,0-3.621-1.625-3.621-3.621c0-1.995,1.624-3.62,3.621-3.62c0.078,0,0.152,0.015,0.228,0.025l0.174,0.02
				c0.037,0.006,0.076,0.007,0.114,0.007c0.254,0,0.5-0.093,0.69-0.263c0.219-0.198,0.345-0.478,0.345-0.772v-6.233
				c0-0.552-0.433-1.008-0.985-1.035l-0.161-0.009c-0.135-0.009-0.269-0.017-0.405-0.017c-6.559,0-11.897,5.338-11.897,11.896
				c0,6.56,5.338,11.896,11.897,11.896c6.277,0,11.442-4.856,11.856-11.099c0.027-0.088,0.04-0.183,0.04-0.281V48.098
				C58.853,49.362,61.278,50,63.965,50C64.536,50,65,49.537,65,48.965v-6.207c0-0.57-0.464-1.035-1.035-1.035
				c-0.255-0.001-6.345-0.135-7.249-7.371C56.651,33.837,56.212,33.448,55.689,33.448L55.689,33.448z"/>
		</g>
		<g>
			<g>
				<path fill="#01F1EE" d="M63.965,43.683c0-0.56,0-0.924,0-0.924s-2.739-0.006-5.09-1.937
					C60.539,42.799,62.702,43.467,63.965,43.683z"/>
				<path fill="#01F1EE" d="M42.103,62.553c0.846,1.165,2.208,1.93,3.759,1.93c2.394,0,4.343-1.813,4.604-4.138l0.051-3.104v-7.216
					V35.518h5.361c-0.071-0.336-0.144-0.667-0.188-1.035h-6.206v14.506v7.218l-0.053,3.103c-0.259,2.325-2.21,4.138-4.603,4.138
					C43.806,63.447,42.871,63.109,42.103,62.553z"/>
				<path fill="#01F1EE" d="M35,59.828c0-5.824,4.587-10.564,10.344-10.836v-1.035c-0.172-0.007-0.342-0.026-0.517-0.026
					c-5.999,0-10.862,4.865-10.862,10.863c0,3.264,1.446,6.184,3.723,8.174C36.019,65.056,35,62.563,35,59.828z"/>
			</g>
		</g>
		<g>
			<path fill="#FDFCEF" d="M79.999,70.173c0,0,1.621,0,3.622,0c1.999,0,3.621-1.621,3.621-3.621c0-1.843-1.382-3.346-3.161-3.574
				c0.027-0.185,0.057-0.369,0.057-0.563c0-2.001-1.62-3.621-3.62-3.621c-1.069,0-2.018,0.471-2.68,1.205
				c-0.397-1.87-2.055-3.272-4.046-3.272c-2.284,0-4.138,1.851-4.138,4.138c0,0.197,0.031,0.385,0.06,0.576
				c-0.444-0.356-0.998-0.576-1.61-0.576c-1.271,0-2.322,0.916-2.539,2.123c-0.187-0.027-0.37-0.056-0.564-0.056
				c-2,0-3.62,1.622-3.62,3.621c0,2,1.62,3.621,3.62,3.621c2.001,0,7.759,0,7.759,0v0.517h7.24V70.173z"/>
			<path d="M81.811,65.518c-0.145,0-0.259-0.115-0.259-0.26c0-1.262,1.028-2.292,2.294-2.292c0.036,0.007,0.763-0.002,1.287,0.139
				c0.139,0.037,0.22,0.18,0.184,0.316c-0.04,0.139-0.182,0.22-0.317,0.183c-0.46-0.123-1.139-0.123-1.152-0.121
				c-0.979,0-1.778,0.796-1.778,1.775C82.068,65.402,81.953,65.518,81.811,65.518z"/>
			<circle cx="74.828" cy="70.173" r="0.517"/>
			<path d="M83.621,70.689h-3.622c-0.283,0-0.517-0.232-0.517-0.517c0-0.285,0.233-0.517,0.517-0.517h3.622
				c1.711,0,3.104-1.393,3.104-3.104c0-1.547-1.164-2.862-2.709-3.061c-0.139-0.018-0.263-0.092-0.348-0.204
				c-0.084-0.11-0.117-0.251-0.098-0.389c0.023-0.159,0.051-0.319,0.051-0.484c0-1.711-1.393-3.104-3.104-3.104
				c-0.879,0-1.695,0.369-2.296,1.035c-0.129,0.145-0.333,0.206-0.516,0.153c-0.189-0.05-0.334-0.202-0.374-0.391
				c-0.354-1.659-1.842-2.867-3.54-2.867c-1.994,0-3.619,1.626-3.619,3.623c0,0.146,0.021,0.288,0.041,0.431
				c0.032,0.211-0.063,0.453-0.249,0.559s-0.41,0.123-0.576-0.01c-0.377-0.303-0.822-0.463-1.285-0.463
				c-0.999,0-1.854,0.714-2.031,1.702c-0.05,0.273-0.305,0.458-0.589,0.416c-0.158-0.022-0.317-0.051-0.483-0.051
				c-1.711,0-3.104,1.394-3.104,3.104c0,1.712,1.393,3.104,3.104,3.104h7.759c0.284,0,0.517,0.231,0.517,0.517
				c0,0.284-0.232,0.517-0.517,0.517H65c-2.283,0-4.138-1.854-4.138-4.138c0-2.282,1.854-4.138,4.138-4.138
				c0.061,0,0.12,0.001,0.181,0.005c0.428-1.226,1.59-2.074,2.923-2.074c0.361,0,0.714,0.063,1.047,0.187
				c0.17-2.412,2.187-4.324,4.642-4.324c1.895,0,3.586,1.165,4.297,2.868c0.703-0.515,1.554-0.8,2.429-0.8
				c2.282,0,4.138,1.856,4.138,4.139c0,0.049-0.002,0.098-0.005,0.147c1.803,0.462,3.108,2.097,3.108,3.99
				C87.759,68.835,85.903,70.689,83.621,70.689z"/>
			<path d="M77.93,69.656c-0.163,0-0.868,0-1.034,0c-0.284,0-0.516,0.231-0.516,0.517c0,0.284,0.231,0.517,0.516,0.517
				c0.166,0,0.871,0,1.034,0c0.286,0,0.519-0.232,0.519-0.517C78.448,69.888,78.216,69.656,77.93,69.656z"/>
		</g>
	</g>
</g>
</svg>
